HIERARCHY
ROOT reference
{
  OFFSET 0 0 0
  CHANNELS 6 Xposition Yposition Zposition Zrotation Xrotation Yrotation
  JOINT Hips
  {
    OFFSET 366.965 89.8555 201.872
    CHANNELS 3 Zrotation Xrotation Yrotation
    JOINT RightUpLeg
    {
      OFFSET -9.27238 -1.56811 0.0123499
      CHANNELS 3 Zrotation Xrotation Yrotation
      JOINT RightLeg
      {
        OFFSET 0.00682797 -41.8882 0.0419786
        CHANNELS 3 Zrotation Xrotation Yrotation
        JOINT RightFoot
        {
          OFFSET 0.530869 -42.1265 0.242224
          CHANNELS 3 Zrotation Xrotation Yrotation
          End Site
          {
            OFFSET 0 -7.69 17.5
          }
        }
      }
    }
    JOINT LeftUpLeg
    {
      OFFSET 9.28391 -1.61639 -0.0258413
      CHANNELS 3 Zrotation Xrotation Yrotation
      JOINT LeftLeg
      {
        OFFSET 0.0291166 -41.8727 -0.014263
        CHANNELS 3 Zrotation Xrotation Yrotation
        JOINT LeftFoot
        {
          OFFSET -0.125672 -41.4933 -0.195947
          CHANNELS 3 Zrotation Xrotation Yrotation
          End Site
          {
            OFFSET 0 -7.69 17.5
          }
        }
      }
    }
    JOINT Spine
    {
      OFFSET 0.0325614 14.2957 0.0242834
      CHANNELS 3 Zrotation Xrotation Yrotation
      JOINT Spine1
      {
        OFFSET 0.00746153 9.71731 0.0172653
        CHANNELS 3 Zrotation Xrotation Yrotation
        JOINT Spine2
        {
          OFFSET 0.0283815 10.1155 -0.00252583
          CHANNELS 3 Zrotation Xrotation Yrotation
          JOINT Spine3
          {
            OFFSET 0.0279172 9.71841 -0.00465252
            CHANNELS 3 Zrotation Xrotation Yrotation
            JOINT Neck
            {
              OFFSET 0.0182001 10.3765 0.0184284
              CHANNELS 3 Zrotation Xrotation Yrotation
              JOINT Head
              {
                OFFSET 0.0113688 9.47343 0.00632939
                CHANNELS 3 Zrotation Xrotation Yrotation
                End Site
                {
                  OFFSET 0 15.95 0
                }
              }
            }
            JOINT RightShoulder
            {
              OFFSET -3.17351 6.93492 0.00767284
              CHANNELS 3 Zrotation Xrotation Yrotation
              JOINT RightArm
              {
                OFFSET -12.7835 -0.0133269 0.0174019
                CHANNELS 3 Zrotation Xrotation Yrotation
                JOINT RightForeArm
                {
                  OFFSET -26.5112 -0.0170228 0.0247955
                  CHANNELS 3 Zrotation Xrotation Yrotation
                  JOINT RightHand
                  {
                    OFFSET -25.9918 -0.0199622 0.0218897
                    CHANNELS 3 Zrotation Xrotation Yrotation
                    JOINT RightHandThumb1
                    {
                      OFFSET -2.48905 0.190105 3.12053
                      CHANNELS 3 Zrotation Xrotation Yrotation
                      JOINT RightHandThumb2
                      {
                        OFFSET -3.68274 0 0
                        CHANNELS 3 Zrotation Xrotation Yrotation
                        JOINT RightHandThumb3
                        {
                          OFFSET -2.55832 0 0
                          CHANNELS 3 Zrotation Xrotation Yrotation
                          End Site
                          {
                            OFFSET -2.194 0 0
                          }
                        }
                      }
                    }
                    JOINT RightInHandIndex
                    {
                      OFFSET -3.22368 0.508421 1.97842
                      CHANNELS 3 Zrotation Xrotation Yrotation
                      JOINT RightHandIndex1
                      {
                        OFFSET -5.21684 -0.091368 0.999158
                        CHANNELS 3 Zrotation Xrotation Yrotation
                        JOINT RightHandIndex2
                        {
                          OFFSET -3.61937 0 0
                          CHANNELS 3 Zrotation Xrotation Yrotation
                          JOINT RightHandIndex3
                          {
                            OFFSET -2.0521 0 0
                            CHANNELS 3 Zrotation Xrotation Yrotation
                            End Site
                            {
                              OFFSET -1.805 0 0
                            }
                          }
                        }
                      }
                    }
                    JOINT RightInHandMiddle
                    {
                      OFFSET -3.38211 0.517263 0.756737
                      CHANNELS 3 Zrotation Xrotation Yrotation
                      JOINT RightHandMiddle1
                      {
                        OFFSET -5.17411 -0.084 0.313895
                        CHANNELS 3 Zrotation Xrotation Yrotation
                        JOINT RightHandMiddle2
                        {
                          OFFSET -3.94947 0 0
                          CHANNELS 3 Zrotation Xrotation Yrotation
                          JOINT RightHandMiddle3
                          {
                            OFFSET -2.47579 0 0
                            CHANNELS 3 Zrotation Xrotation Yrotation
                            End Site
                            {
                              OFFSET -1.975 0 0
                            }
                          }
                        }
                      }
                    }
                    JOINT RightInHandRing
                    {
                      OFFSET -3.36516 0.537895 -0.128947
                      CHANNELS 3 Zrotation Xrotation Yrotation
                      JOINT RightHandRing1
                      {
                        OFFSET -4.63474 -0.022105 -0.478947
                        CHANNELS 3 Zrotation Xrotation Yrotation
                        JOINT RightHandRing2
                        {
                          OFFSET -3.44238 0 0
                          CHANNELS 3 Zrotation Xrotation Yrotation
                          JOINT RightHandRing3
                          {
                            OFFSET -2.3881 0 0
                            CHANNELS 3 Zrotation Xrotation Yrotation
                            End Site
                            {
                              OFFSET -1.857 0 0
                            }
                          }
                        }
                      }
                    }
                    JOINT RightInHandPinky
                    {
                      OFFSET -3.16105 0.469368 -1.20179
                      CHANNELS 3 Zrotation Xrotation Yrotation
                      JOINT RightHandPinky1
                      {
                        OFFSET -4.14105 -0.022105 -1.09053
                        CHANNELS 3 Zrotation Xrotation Yrotation
                        JOINT RightHandPinky2
                        {
                          OFFSET -2.75653 0 0
                          CHANNELS 3 Zrotation Xrotation Yrotation
                          JOINT RightHandPinky3
                          {
                            OFFSET -1.74189 0 0
                            CHANNELS 3 Zrotation Xrotation Yrotation
                            End Site
                            {
                              OFFSET -1.645 0 0
                            }
                          }
                        }
                      }
                    }
                  }
                }
              }
            }
            JOINT LeftShoulder
            {
              OFFSET 3.23633 6.91116 -0.0162332
              CHANNELS 3 Zrotation Xrotation Yrotation
              JOINT LeftArm
              {
                OFFSET 12.8112 -0.0136289 -0.0286256
                CHANNELS 3 Zrotation Xrotation Yrotation
                JOINT LeftForeArm
                {
                  OFFSET 26.502 -0.0235899 -0.00806802
                  CHANNELS 3 Zrotation Xrotation Yrotation
                  JOINT LeftHand
                  {
                    OFFSET 25.9974 -0.0321613 -0.027004
                    CHANNELS 3 Zrotation Xrotation Yrotation
                    JOINT LeftHandThumb1
                    {
                      OFFSET 2.48905 0.190105 3.12053
                      CHANNELS 3 Zrotation Xrotation Yrotation
                      JOINT LeftHandThumb2
                      {
                        OFFSET 3.68274 0 0
                        CHANNELS 3 Zrotation Xrotation Yrotation
                        JOINT LeftHandThumb3
                        {
                          OFFSET 2.55832 0 0
                          CHANNELS 3 Zrotation Xrotation Yrotation
                          End Site
                          {
                            OFFSET 2.194 0 0
                          }
                        }
                      }
                    }
                    JOINT LeftInHandIndex
                    {
                      OFFSET 3.22368 0.508421 1.97842
                      CHANNELS 3 Zrotation Xrotation Yrotation
                      JOINT LeftHandIndex1
                      {
                        OFFSET 5.21684 -0.091368 0.999158
                        CHANNELS 3 Zrotation Xrotation Yrotation
                        JOINT LeftHandIndex2
                        {
                          OFFSET 3.61937 0 0
                          CHANNELS 3 Zrotation Xrotation Yrotation
                          JOINT LeftHandIndex3
                          {
                            OFFSET 2.0521 0 0
                            CHANNELS 3 Zrotation Xrotation Yrotation
                            End Site
                            {
                              OFFSET 1.805 0 0
                            }
                          }
                        }
                      }
                    }
                    JOINT LeftInHandMiddle
                    {
                      OFFSET 3.38211 0.517263 0.756737
                      CHANNELS 3 Zrotation Xrotation Yrotation
                      JOINT LeftHandMiddle1
                      {
                        OFFSET 5.17411 -0.084 0.313895
                        CHANNELS 3 Zrotation Xrotation Yrotation
                        JOINT LeftHandMiddle2
                        {
                          OFFSET 3.94947 0 0
                          CHANNELS 3 Zrotation Xrotation Yrotation
                          JOINT LeftHandMiddle3
                          {
                            OFFSET 2.47579 0 0
                            CHANNELS 3 Zrotation Xrotation Yrotation
                            End Site
                            {
                              OFFSET 1.975 0 0
                            }
                          }
                        }
                      }
                    }
                    JOINT LeftInHandRing
                    {
                      OFFSET 3.36516 0.537895 -0.128947
                      CHANNELS 3 Zrotation Xrotation Yrotation
                      JOINT LeftHandRing1
                      {
                        OFFSET 4.63474 -0.022105 -0.478947
                        CHANNELS 3 Zrotation Xrotation Yrotation
                        JOINT LeftHandRing2
                        {
                          OFFSET 3.44238 0 0
                          CHANNELS 3 Zrotation Xrotation Yrotation
                          JOINT LeftHandRing3
                          {
                            OFFSET 2.3881 0 0
                            CHANNELS 3 Zrotation Xrotation Yrotation
                            End Site
                            {
                              OFFSET 1.857 0 0
                            }
                          }
                        }
                      }
                    }
                    JOINT LeftInHandPinky
                    {
                      OFFSET 3.16105 0.469368 -1.20179
                      CHANNELS 3 Zrotation Xrotation Yrotation
                      JOINT LeftHandPinky1
                      {
                        OFFSET 4.14105 -0.022105 -1.09053
                        CHANNELS 3 Zrotation Xrotation Yrotation
                        JOINT LeftHandPinky2
                        {
                          OFFSET 2.75653 0 0
                          CHANNELS 3 Zrotation Xrotation Yrotation
                          JOINT LeftHandPinky3
                          {
                            OFFSET 1.74189 0 0
                            CHANNELS 3 Zrotation Xrotation Yrotation
                            End Site
                            {
                              OFFSET 1.645 0 0
                            }
                          }
                        }
                      }
                    }
                  }
                }
              }
            }
          }
        }
      }
    }
  }
}
MOTION
Frames: 2
Frame Time: 0.00833333
9.000000000000000000e+02 0.000000000000000000e+00 0.000000000000000000e+00 0.000000000000000000e+00 0.000000000000000000e+00 0.000000000000000000e+00 -1.791673230090883084e+00 4.165893551000328543e+00 2.696730665019746453e+01 -2.023274379098421960e+01 5.319523571413681040e+00 -1.683389838462879240e+01 2.921043209789435213e+00 7.197000858933380041e-01 -6.519447710861592249e+00 4.420516652125226820e+00 -7.861519684345825709e+00 -1.356637012591989944e+01 -1.658642254472185229e+01 -5.945542883187886041e+00 -1.479801347220998586e+01 1.223310378229336415e+01 -4.418333851790703370e+00 -1.174203344509831126e+01 1.741919449178266133e+00 8.151871784411005351e+00 -9.459770651554221033e+00 2.865840524630886232e+00 5.861049037630000846e+00 7.281947689611683927e+00 8.025665865967253065e-01 1.580548158755342492e+00 1.863822328643415460e+00 1.271973885585606201e+00 2.635777453868938469e+00 3.070011551534818750e+00 3.813896588776991559e-01 1.783072290767474810e-01 -1.379333007651398990e+00 6.728026191427919356e-01 2.136835745405853970e+00 -1.255101559990070648e+01 6.803447362767803597e+00 4.906672183975482882e-02 -1.846747716792912541e+01 -3.141339926698322738e-01 -6.335549812232707190e+00 7.174731468313237492e+00 1.291729776492438120e+01 2.321143307688375401e+01 2.317643496801754921e+01 -6.284466185224315105e+00 2.205109000555480758e-01 -4.622847580348975072e+01 2.477134489029965358e+00 -1.937561733990045276e-01 -3.870964738400640925e+00 0.000000000000000000e+00 0.000000000000000000e+00 0.000000000000000000e+00 7.517241815266910416e-16 -1.564203792108635814e-15 0.000000000000000000e+00 4.597225920593025302e-15 -1.182915367683175422e-15 0.000000000000000000e+00 1.242533344372418242e-15 1.339988450975006234e-15 -8.154609216809998488e-16 0.000000000000000000e+00 0.000000000000000000e+00 0.000000000000000000e+00 0.000000000000000000e+00 -2.746804098306847758e-15 -6.545430339354536929e-15 0.000000000000000000e+00 1.685840662674529239e-15 2.634263560194691447e-16 1.242533344372418242e-15 1.339988450975006234e-15 -8.154609216809998488e-16 0.000000000000000000e+00 2.311419126346892982e-15 -4.012915338792535367e-15 0.000000000000000000e+00 -1.926635391132203667e-15 -5.065865582382334320e-15 0.000000000000000000e+00 -7.599650569720572095e-16 3.342224525342779861e-15 1.242533344372418242e-15 1.339988450975006234e-15 -8.154609216809998488e-16 0.000000000000000000e+00 0.000000000000000000e+00 0.000000000000000000e+00 0.000000000000000000e+00 -1.244735936810034573e-15 -5.748906670007728053e-15 0.000000000000000000e+00 8.932386575299594981e-16 2.490925697547965519e-15 1.242533344372418242e-15 1.339988450975006234e-15 -8.154609216809998488e-16 0.000000000000000000e+00 0.000000000000000000e+00 0.000000000000000000e+00 0.000000000000000000e+00 -4.395777434204915256e-15 -1.229518274290736880e-14 0.000000000000000000e+00 -5.821716990254273745e-16 9.345321452176824496e-16 2.708726906242840293e+00 4.091026885813517922e-01 6.596645831390929970e+00 -1.902552719997795450e+01 1.756337303096245694e+00 1.499288261359224705e+01 -2.192374262463142998e+01 -2.064338530834418961e+01 -6.844218426521617715e+00 1.668614695163424200e+00 -2.584109691679755461e+00 4.171196702792583366e+00 0.000000000000000000e+00 0.000000000000000000e+00 0.000000000000000000e+00 -8.694728477257112349e-16 5.092426797893154454e-16 0.000000000000000000e+00 3.820801562944686411e-16 1.250464982572919837e-15 0.000000000000000000e+00 1.615716475630546379e-15 8.348965186382900519e-16 -1.421720349004578916e-15 0.000000000000000000e+00 0.000000000000000000e+00 0.000000000000000000e+00 0.000000000000000000e+00 2.504525124038469062e-15 -2.884020011772330513e-16 0.000000000000000000e+00 3.004397184011008813e-16 -3.740057985897148575e-16 1.615716475630546379e-15 8.348965186382900519e-16 -1.421720349004578916e-15 0.000000000000000000e+00 2.410053654017872134e-16 -2.121850289359404617e-15 0.000000000000000000e+00 7.609805735499444675e-18 -2.714905572128677434e-16 0.000000000000000000e+00 -1.392170587462556906e-15 7.532521405154521402e-16 1.615716475630546379e-15 8.348965186382900519e-16 -1.421720349004578916e-15 0.000000000000000000e+00 0.000000000000000000e+00 0.000000000000000000e+00 0.000000000000000000e+00 3.278844658409211889e-16 1.281028877859362663e-15 0.000000000000000000e+00 -1.515258663392538663e-15 3.574699515715314195e-15 1.615716475630546379e-15 8.348965186382900519e-16 -1.421720349004578916e-15 0.000000000000000000e+00 0.000000000000000000e+00 0.000000000000000000e+00 0.000000000000000000e+00 -1.443788895262037445e-15 -2.110149292304963521e-15 0.000000000000000000e+00 9.526869731285330692e-16 -1.746894169368529182e-15
9.000000000000000000e+02 0.000000000000000000e+00 0.000000000000000000e+00 0.000000000000000000e+00 0.000000000000000000e+00 0.000000000000000000e+00 -1.919461593033864988e+00 3.971214281480464070e+00 2.713080838557583618e+01 -2.000972675558555736e+01 5.683609960724385957e+00 -1.653778918002191389e+01 2.878871173359894176e+00 5.213089620901054655e-01 -6.463322683677851010e+00 4.232026980995825305e+00 -7.543409653196596842e+00 -1.343218114230670146e+01 -1.657702927382093705e+01 -5.573077369975918849e+00 -1.465133659241217501e+01 1.211416788890996443e+01 -4.508507609954917505e+00 -1.170813987391693090e+01 1.716385480708916056e+00 8.077731139613598899e+00 -9.610228944035670295e+00 2.765558160668949217e+00 5.733064942538331543e+00 7.622851557322674054e+00 7.769218754618250067e-01 1.537574737846026274e+00 1.948771881662301420e+00 1.230880131600115002e+00 2.560470726301901756e+00 3.200168488218001706e+00 3.800198219839768243e-01 1.754478746177070003e-01 -1.388997132656525135e+00 6.857883039615239040e-01 2.092732323555954732e+00 -1.272272585929318289e+01 6.777608327106725561e+00 1.212293250358907754e-01 -1.857075982895879562e+01 -4.134143612517958144e-01 -6.244638342160208744e+00 7.295832811579998634e+00 1.251123082380936680e+01 2.314903225171086376e+01 2.337642770830581540e+01 -6.276965249661753177e+00 2.185548525155376343e-01 -4.585846784889992733e+01 2.627029728152265431e+00 -2.681915594263406533e-02 -4.101541162240881278e+00 0.000000000000000000e+00 0.000000000000000000e+00 0.000000000000000000e+00 8.120979489203705825e-16 -1.596309180148390898e-15 0.000000000000000000e+00 4.721773812675732878e-15 -1.152750345123051635e-15 0.000000000000000000e+00 1.225480625439612098e-15 1.305051131994479363e-15 -8.206869179718605946e-16 0.000000000000000000e+00 0.000000000000000000e+00 0.000000000000000000e+00 0.000000000000000000e+00 -2.796936581274413342e-15 -6.657991361240578134e-15 0.000000000000000000e+00 1.666269784436726685e-15 1.646452957789563447e-16 1.225480625439612098e-15 1.305051131994479363e-15 -8.206869179718605946e-16 0.000000000000000000e+00 2.317369008035196969e-15 -3.965704540555714348e-15 0.000000000000000000e+00 -1.961155058576904988e-15 -5.186652411169796649e-15 0.000000000000000000e+00 -7.977024181527326848e-16 3.245849941554750663e-15 1.225480625439612098e-15 1.305051131994479363e-15 -8.206869179718605946e-16 0.000000000000000000e+00 0.000000000000000000e+00 0.000000000000000000e+00 0.000000000000000000e+00 -1.311481580836535591e-15 -5.868581693846237372e-15 0.000000000000000000e+00 8.813362857682922621e-16 2.363859846591730546e-15 1.225480625439612098e-15 1.305051131994479363e-15 -8.206869179718605946e-16 0.000000000000000000e+00 0.000000000000000000e+00 0.000000000000000000e+00 0.000000000000000000e+00 -4.434836211767711060e-15 -1.248965858470848726e-14 0.000000000000000000e+00 -5.963308867308482981e-16 7.728444443271221976e-16 2.599361794582503826e+00 5.065308564378712131e-01 6.604140195069022390e+00 -1.905214298474803059e+01 1.365528252219788463e+00 1.510986543137787486e+01 -2.194215641070073630e+01 -2.064999373299298568e+01 -7.668147580143539699e+00 1.766214264215020924e+00 -2.502151684841518176e+00 4.072715687975753340e+00 0.000000000000000000e+00 0.000000000000000000e+00 0.000000000000000000e+00 -8.418995581371841679e-16 5.450509846246364850e-16 0.000000000000000000e+00 3.835806097571671185e-16 1.278289062390080597e-15 0.000000000000000000e+00 1.570385502021724367e-15 8.333311795680391534e-16 -1.433399698395731477e-15 0.000000000000000000e+00 0.000000000000000000e+00 0.000000000000000000e+00 0.000000000000000000e+00 2.486999071806976773e-15 -1.570576148582595607e-16 0.000000000000000000e+00 3.032489142583192832e-16 -2.547144526058045276e-16 1.570385502021724367e-15 8.333311795680391534e-16 -1.433399698395731477e-15 0.000000000000000000e+00 2.492151001225263979e-16 -2.135250407628803692e-15 0.000000000000000000e+00 1.180733173828978959e-18 -2.039515648832162478e-16 0.000000000000000000e+00 -1.357721203183307650e-15 8.494252176056728021e-16 1.570385502021724367e-15 8.333311795680391534e-16 -1.433399698395731477e-15 0.000000000000000000e+00 0.000000000000000000e+00 0.000000000000000000e+00 0.000000000000000000e+00 3.462277138492380362e-16 1.325611357408343840e-15 0.000000000000000000e+00 -1.501849381089817308e-15 3.684637986088589614e-15 1.570385502021724367e-15 8.333311795680391534e-16 -1.433399698395731477e-15 0.000000000000000000e+00 0.000000000000000000e+00 0.000000000000000000e+00 0.000000000000000000e+00 -1.422215857692621315e-15 -2.044858349174192165e-15 0.000000000000000000e+00 9.416349336761710779e-16 -1.672292480529751012e-15
